<?xml version="1.0" encoding="utf-8" ?>
<svg xmlns="http://www.w3.org/2000/svg" xmlns:xlink="http://www.w3.org/1999/xlink" width="1023" height="1023">
	<path fill="#16CEC9" d="M901.315 835.528C902.136 835.492 903.188 835.357 903.987 835.516C905.384 835.793 905.53 836.129 906.2 837.252C905.795 843.921 888.568 865.476 883.938 871.455L909.864 871.594C903.428 880.43 894.48 888.421 886.804 896.255C877.813 905.432 866.863 918.336 856.382 925.308C853.649 927.126 850.532 927.524 847.369 928.036C846.636 927.714 845.678 927.385 845.042 926.908C844.066 926.176 843.655 925.537 843.617 924.313C843.443 918.806 866.504 892.668 871.092 887.51Q857.363 887.597 843.639 887.198C850.872 879.401 858.716 872.239 866.403 864.901C877.387 854.414 887.836 842.824 901.315 835.528Z"/>
	<path fill="#16CEC9" d="M874.272 801.687C885.204 800.212 899.805 802.368 909.796 807.129C912.159 808.255 914.884 809.977 915.716 812.626C916.299 814.482 915.83 816.436 914.941 818.114C912.996 821.786 909.189 823.37 905.453 824.585L904.827 824.403C885.662 818.844 868.637 817.373 850.511 827.489Q849.267 828.199 848.058 828.967Q846.85 829.736 845.68 830.562Q844.51 831.389 843.381 832.271Q842.252 833.153 841.168 834.088Q840.083 835.024 839.045 836.01Q838.007 836.997 837.017 838.033Q836.028 839.069 835.09 840.151Q834.152 841.234 833.267 842.36Q832.383 843.487 831.553 844.655Q830.724 845.823 829.952 847.029Q829.181 848.236 828.468 849.479Q827.756 850.721 827.104 851.997Q826.452 853.272 825.863 854.578Q825.274 855.883 824.748 857.216Q824.223 858.548 823.763 859.905Q823.302 861.261 822.908 862.638C818.516 878.21 821.389 892.714 829.205 906.585C831.714 910.172 834.358 913.567 835.114 918.001C835.604 920.869 835.26 924.318 833.415 926.68C832.262 928.157 830.505 929.016 828.662 929.23C825.605 929.586 822.715 928.274 820.392 926.377C810.108 917.979 804.494 899.667 802.993 886.999Q802.773 885.165 802.643 883.323Q802.514 881.481 802.476 879.635Q802.439 877.788 802.492 875.942Q802.546 874.096 802.691 872.255Q802.836 870.414 803.073 868.582Q803.309 866.751 803.636 864.933Q803.962 863.115 804.379 861.316Q804.795 859.517 805.3 857.741Q805.806 855.964 806.398 854.215Q806.991 852.466 807.669 850.748Q808.347 849.031 809.11 847.349Q809.873 845.667 810.718 844.025Q811.563 842.383 812.489 840.784Q813.414 839.186 814.418 837.636Q815.422 836.086 816.501 834.587Q817.58 833.088 818.732 831.645C832.914 813.858 851.891 804.317 874.272 801.687Z"/>
	<path fill="#16CEC9" d="M924.576 822.534C925.667 822.487 926.802 822.427 927.88 822.633C933.843 823.769 938.212 830.581 941.343 835.26C952.646 852.149 957.322 872.6 953.217 892.618Q952.82 894.519 952.33 896.398Q951.841 898.277 951.259 900.129Q950.678 901.982 950.006 903.804Q949.334 905.626 948.574 907.413Q947.814 909.2 946.967 910.947Q946.12 912.694 945.188 914.398Q944.256 916.101 943.242 917.757Q942.228 919.413 941.133 921.017Q940.039 922.621 938.868 924.17Q937.696 925.718 936.45 927.207Q935.203 928.696 933.885 930.122Q932.568 931.548 931.181 932.908Q929.795 934.268 928.344 935.558Q926.892 936.848 925.38 938.065Q923.867 939.282 922.296 940.424Q920.725 941.565 919.1 942.628C899.88 955.1 878.532 956.617 856.605 951.967C853.409 950.983 849.744 949.875 847.657 947.07C846.325 945.279 845.862 942.866 846.275 940.687C846.709 938.398 848.139 936.383 850.069 935.102C855.447 931.531 862.587 934.909 868.312 935.862Q869.702 936.08 871.101 936.23Q872.5 936.379 873.904 936.461Q875.309 936.543 876.716 936.557Q878.123 936.57 879.529 936.515Q880.934 936.46 882.336 936.337Q883.738 936.214 885.131 936.023Q886.525 935.832 887.908 935.574Q889.291 935.315 890.66 934.99Q892.029 934.665 893.38 934.273Q894.732 933.882 896.063 933.425Q897.393 932.969 898.7 932.448Q900.007 931.927 901.288 931.344Q902.568 930.76 903.818 930.115Q905.069 929.47 906.286 928.765Q907.504 928.06 908.686 927.297Q909.868 926.534 911.011 925.714Q912.201 924.88 913.349 923.99Q914.497 923.099 915.6 922.152Q916.702 921.206 917.757 920.206Q918.812 919.207 919.816 918.157Q920.82 917.107 921.772 916.009Q922.723 914.91 923.62 913.767Q924.516 912.623 925.355 911.436Q926.194 910.25 926.974 909.024Q927.753 907.798 928.471 906.535Q929.19 905.271 929.845 903.975Q930.501 902.678 931.091 901.35Q931.682 900.023 932.207 898.668Q932.732 897.313 933.189 895.933Q933.647 894.554 934.036 893.154Q934.425 891.754 934.745 890.337Q935.064 888.919 935.314 887.488C937.447 874.581 935.233 859.795 928.075 848.666C925.681 844.944 922.199 841.928 919.715 838.269C918.117 835.914 916.871 833.228 917.533 830.325C918.365 826.685 921.614 824.403 924.576 822.534Z"/>
	<path fill="#0D94FE" d="M498.324 163.217Q499.674 163.153 501.025 163.104C595.369 159.749 682.833 194.364 751.603 258.574Q754.717 261.494 757.757 264.49Q760.798 267.486 763.764 270.556Q766.729 273.626 769.618 276.769Q772.508 279.911 775.318 283.124Q778.129 286.336 780.859 289.617Q783.59 292.899 786.239 296.246Q788.888 299.593 791.453 303.005Q794.018 306.417 796.499 309.891Q798.979 313.365 801.373 316.899Q803.767 320.433 806.073 324.025Q808.379 327.618 810.596 331.265Q812.813 334.913 814.939 338.615Q817.065 342.316 819.099 346.069Q821.133 349.822 823.073 353.624Q825.014 357.426 826.861 361.275Q828.707 365.123 830.458 369.016Q832.209 372.909 833.863 376.844Q835.518 380.779 837.075 384.754Q838.631 388.729 840.089 392.74Q841.548 396.752 842.906 400.799Q844.265 404.845 845.524 408.924Q846.782 413.003 847.94 417.112Q849.097 421.221 850.153 425.357Q851.209 429.493 852.162 433.653Q853.116 437.814 853.966 441.997Q854.817 446.18 855.564 450.383Q856.311 454.586 856.954 458.806Q857.597 463.026 858.136 467.26Q858.674 471.495 859.108 475.741Q859.543 479.988 859.872 484.244Q860.201 488.5 860.425 492.762Q860.649 497.025 860.768 501.292Q860.916 505.628 860.957 509.966Q860.997 514.304 860.93 518.641Q860.863 522.979 860.688 527.313Q860.513 531.648 860.231 535.977Q859.948 540.306 859.559 544.627Q859.169 548.947 858.672 553.257Q858.175 557.566 857.571 561.862Q856.967 566.158 856.257 570.438Q855.547 574.717 854.73 578.978Q853.914 583.239 852.992 587.478Q852.07 591.717 851.043 595.932Q850.016 600.147 848.885 604.335Q847.754 608.523 846.519 612.681Q845.284 616.84 843.946 620.967Q842.609 625.094 841.169 629.186Q839.729 633.278 838.188 637.333Q836.647 641.389 835.006 645.404Q833.365 649.42 831.624 653.394Q829.884 657.368 828.045 661.297Q826.207 665.226 824.271 669.109Q822.336 672.991 820.305 676.824Q818.273 680.657 816.147 684.439Q814.022 688.221 811.802 691.948Q809.583 695.676 807.272 699.347Q804.961 703.019 802.56 706.631Q800.159 710.244 797.668 713.796Q795.178 717.349 792.6 720.838Q790.022 724.327 787.359 727.751Q784.695 731.175 781.947 734.532Q779.199 737.889 776.369 741.177Q773.538 744.464 770.627 747.681Q767.716 750.897 764.726 754.04Q761.827 757.095 758.854 760.08Q755.881 763.064 752.837 765.975Q749.793 768.886 746.679 771.723Q743.565 774.559 740.384 777.319Q737.202 780.08 733.954 782.762Q730.706 785.444 727.394 788.047Q724.083 790.649 720.709 793.171Q717.335 795.692 713.901 798.131Q710.466 800.57 706.974 802.925Q703.482 805.28 699.933 807.55Q696.385 809.819 692.783 812.002Q689.18 814.185 685.526 816.28Q681.872 818.375 678.168 820.38Q674.464 822.386 670.712 824.301Q666.961 826.216 663.164 828.04Q659.367 829.864 655.527 831.595Q651.687 833.326 647.806 834.963Q643.925 836.6 640.006 838.143Q636.086 839.686 632.13 841.133Q628.175 842.58 624.185 843.931Q620.195 845.282 616.174 846.536Q612.153 847.79 608.103 848.945Q604.052 850.101 599.975 851.159Q595.898 852.216 591.796 853.174Q587.694 854.132 583.57 854.99Q579.447 855.849 575.303 856.607Q571.16 857.365 566.999 858.022Q562.839 858.679 558.664 859.235Q554.488 859.792 550.301 860.246Q546.113 860.701 541.916 861.054Q537.719 861.407 533.514 861.659Q529.309 861.91 525.1 862.059C507.602 863.038 489.827 862.033 472.427 860.065C399.799 851.853 333.925 821.046 279.36 772.656Q276.208 769.878 273.125 767.025Q270.043 764.171 267.03 761.243Q264.018 758.315 261.078 755.314Q258.139 752.313 255.273 749.241Q252.407 746.169 249.618 743.029Q246.828 739.888 244.116 736.68Q241.404 733.471 238.771 730.198Q236.138 726.925 233.586 723.588Q231.034 720.251 228.564 716.853Q226.094 713.455 223.708 709.997Q221.322 706.54 219.021 703.025Q216.72 699.511 214.505 695.941Q212.291 692.371 210.164 688.748Q208.038 685.125 206.001 681.451Q203.963 677.777 202.016 674.055Q200.069 670.333 198.214 666.564Q196.358 662.795 194.596 658.982Q192.833 655.168 191.164 651.313Q189.494 647.458 187.92 643.564Q186.345 639.669 184.867 635.737Q183.388 631.805 182.005 627.838Q180.623 623.871 179.338 619.871Q178.053 615.872 176.866 611.842Q175.679 607.812 174.591 603.755Q173.503 599.697 172.515 595.614Q171.526 591.531 170.637 587.426Q169.749 583.32 168.961 579.193Q168.173 575.067 167.486 570.923Q166.799 566.778 166.213 562.619Q165.628 558.459 165.144 554.286Q164.66 550.113 164.279 545.929Q163.897 541.746 163.618 537.554C162.525 519.057 162.199 500.737 163.712 482.262Q163.998 478.818 164.353 475.381Q164.707 471.943 165.131 468.513Q165.554 465.084 166.045 461.663Q166.537 458.243 167.097 454.833Q167.656 451.423 168.284 448.024Q168.912 444.626 169.607 441.241Q170.303 437.856 171.066 434.486Q171.828 431.115 172.658 427.76Q173.488 424.406 174.385 421.069Q175.282 417.731 176.245 414.412Q177.208 411.094 178.237 407.795Q179.266 404.496 180.361 401.218Q181.456 397.94 182.616 394.685Q183.776 391.43 185.001 388.199Q186.226 384.967 187.515 381.761Q188.804 378.555 190.157 375.375Q191.51 372.195 192.926 369.043Q194.341 365.89 195.82 362.767Q197.299 359.643 198.839 356.55Q200.38 353.457 201.982 350.395Q203.584 347.333 205.247 344.304Q206.91 341.274 208.633 338.279Q210.356 335.283 212.139 332.323Q213.921 329.362 215.762 326.438Q217.603 323.514 219.503 320.626Q221.402 317.739 223.358 314.891Q225.315 312.042 227.328 309.233Q229.34 306.424 231.409 303.656Q233.478 300.888 235.601 298.162Q237.724 295.435 239.902 292.752Q242.079 290.068 244.31 287.429Q246.54 284.789 248.823 282.195C315.557 207.223 398.671 168.919 498.324 163.217ZM499.085 191.71C483.826 192.699 468.616 193.941 453.558 196.719Q450.294 197.322 447.042 197.994Q443.791 198.665 440.555 199.404Q437.318 200.143 434.098 200.949Q430.877 201.755 427.674 202.628Q424.471 203.502 421.287 204.441Q418.103 205.381 414.939 206.387Q411.776 207.393 408.634 208.464Q405.492 209.536 402.372 210.673Q399.253 211.809 396.159 213.011Q393.064 214.213 389.995 215.478Q386.926 216.744 383.884 218.074Q380.842 219.403 377.828 220.796Q374.815 222.188 371.831 223.643Q368.847 225.098 365.894 226.615Q362.941 228.132 360.02 229.71Q357.099 231.289 354.212 232.927Q351.325 234.566 348.473 236.264Q345.62 237.963 342.804 239.72Q339.987 241.478 337.208 243.294Q334.429 245.11 331.688 246.983Q328.948 248.857 326.247 250.787Q323.546 252.717 320.885 254.703Q318.225 256.689 315.607 258.73Q312.988 260.771 310.413 262.866Q307.838 264.961 305.307 267.109Q302.776 269.258 300.29 271.458Q297.805 273.659 295.365 275.911Q292.926 278.163 290.534 280.465Q288.143 282.767 285.799 285.119Q283.456 287.47 281.162 289.87Q278.868 292.27 276.625 294.717Q274.382 297.165 272.19 299.658Q269.579 302.603 267.041 305.611Q264.503 308.62 262.04 311.69Q259.578 314.76 257.192 317.891Q254.806 321.021 252.498 324.209Q250.191 327.398 247.962 330.642Q245.734 333.886 243.587 337.185Q241.44 340.484 239.375 343.834Q237.31 347.185 235.328 350.586Q233.346 353.986 231.45 357.435Q229.553 360.884 227.742 364.378Q225.931 367.873 224.207 371.411Q222.483 374.949 220.847 378.529Q219.211 382.109 217.664 385.728Q216.117 389.347 214.66 393.003Q213.203 396.66 211.837 400.351Q210.471 404.042 209.197 407.766Q207.923 411.49 206.741 415.244Q205.559 418.998 204.47 422.781Q203.382 426.563 202.387 430.371Q201.392 434.179 200.492 438.011Q199.592 441.842 198.786 445.695Q197.981 449.548 197.272 453.419Q196.562 457.29 195.948 461.178Q195.334 465.066 194.817 468.968Q194.3 472.869 193.879 476.783Q193.458 480.696 193.134 484.619Q192.81 488.541 192.584 492.47Q192.357 496.4 192.228 500.334Q192.098 504.267 192.066 508.203Q192.034 512.139 192.099 516.074Q192.164 520.01 192.327 523.942Q192.489 527.875 192.749 531.802Q192.988 535.753 193.325 539.698Q193.661 543.642 194.096 547.577Q194.531 551.511 195.063 555.434Q195.595 559.357 196.224 563.265Q196.853 567.174 197.579 571.065Q198.304 574.957 199.126 578.829Q199.949 582.701 200.866 586.552Q201.784 590.403 202.798 594.23Q203.811 598.056 204.918 601.857Q206.026 605.657 207.228 609.429Q208.429 613.201 209.724 616.942Q211.019 620.683 212.406 624.391Q213.793 628.098 215.272 631.77Q216.75 635.442 218.32 639.077Q219.889 642.711 221.548 646.305Q223.207 649.9 224.954 653.452Q226.702 657.004 228.537 660.511Q230.372 664.019 232.294 667.48Q234.215 670.941 236.222 674.353Q238.229 677.765 240.32 681.127Q242.41 684.488 244.584 687.797Q246.757 691.105 249.012 694.359Q251.267 697.613 253.602 700.809Q255.937 704.006 258.35 707.144Q260.764 710.282 263.254 713.359Q265.745 716.436 268.311 719.45Q270.877 722.465 273.517 725.414Q276.157 728.364 278.87 731.247Q281.582 734.131 284.365 736.946Q287.148 739.761 290 742.507Q292.852 745.252 295.771 747.926Q298.69 750.599 301.675 753.2Q304.524 755.723 307.432 758.177Q310.34 760.63 313.306 763.014Q316.272 765.397 319.294 767.709Q322.316 770.021 325.393 772.26Q328.47 774.499 331.599 776.663Q334.728 778.828 337.909 780.917Q341.089 783.006 344.318 785.019Q347.548 787.031 350.824 788.966Q354.101 790.9 357.423 792.756Q360.745 794.611 364.11 796.387Q367.475 798.162 370.882 799.857Q374.289 801.552 377.736 803.164Q381.182 804.776 384.666 806.306Q388.15 807.836 391.67 809.281Q395.19 810.727 398.743 812.088Q402.296 813.449 405.881 814.725Q409.466 816.001 413.08 817.19Q416.695 818.38 420.336 819.483Q423.978 820.585 427.645 821.601Q431.312 822.616 435.003 823.543Q438.693 824.47 442.405 825.309Q446.116 826.147 449.847 826.897Q453.577 827.647 457.324 828.307Q461.072 828.967 464.834 829.537Q468.596 830.107 472.371 830.587Q476.145 831.067 479.93 831.457Q483.715 831.846 487.509 832.145Q491.302 832.444 495.101 832.652Q498.901 832.86 502.704 832.977Q506.507 833.094 510.312 833.12Q514.117 833.146 517.922 833.081Q521.726 833.016 525.528 832.86C611.848 828.742 690.119 793.261 748.439 729.028Q751.108 726.095 753.704 723.097Q756.3 720.099 758.821 717.037Q761.342 713.976 763.787 710.853Q766.232 707.731 768.599 704.549Q770.966 701.367 773.254 698.128Q775.542 694.889 777.749 691.594Q779.956 688.299 782.081 684.951Q784.207 681.603 786.249 678.203Q788.291 674.804 790.249 671.355Q792.206 667.906 794.078 664.41Q795.95 660.914 797.735 657.372Q799.521 653.831 801.218 650.247Q802.915 646.663 804.524 643.038Q806.132 639.413 807.651 635.749Q809.169 632.086 810.597 628.386Q812.024 624.686 813.36 620.952Q814.696 617.218 815.94 613.452Q817.183 609.687 818.333 605.891Q819.484 602.096 820.54 598.273Q821.596 594.451 822.558 590.603Q823.52 586.756 824.386 582.886Q825.253 579.016 826.023 575.126Q826.794 571.236 827.469 567.328Q828.143 563.42 828.721 559.496Q829.299 555.573 829.78 551.637Q830.261 547.7 830.645 543.753Q831.029 539.806 831.315 535.85Q831.601 531.895 831.79 527.934Q831.979 523.972 832.07 520.008Q832.161 516.043 832.154 512.077Q832.147 508.111 832.042 504.147Q831.937 500.183 831.735 496.222Q831.524 492.269 831.216 488.323Q830.908 484.376 830.504 480.439Q830.099 476.501 829.598 472.575Q829.096 468.648 828.499 464.735Q827.901 460.822 827.208 456.925Q826.515 453.028 825.726 449.149Q824.937 445.27 824.053 441.411Q823.169 437.553 822.191 433.717Q821.212 429.881 820.14 426.071Q819.068 422.26 817.903 418.478Q816.737 414.695 815.479 410.941Q814.222 407.188 812.872 403.467Q811.522 399.746 810.082 396.059Q808.641 392.372 807.11 388.721Q805.58 385.071 803.96 381.459Q802.34 377.847 800.632 374.276Q798.924 370.705 797.129 367.177Q795.334 363.649 793.452 360.167Q791.571 356.684 789.605 353.248Q787.639 349.813 785.589 346.426Q783.539 343.04 781.407 339.705Q779.274 336.37 777.061 333.089Q774.847 329.807 772.553 326.581Q770.26 323.355 767.888 320.186Q765.516 317.017 763.067 313.907Q760.617 310.797 758.093 307.748Q755.568 304.7 752.969 301.714Q750.37 298.728 747.699 295.807Q745.028 292.886 742.285 290.031Q739.543 287.176 736.732 284.39Q733.92 281.603 731.041 278.887Q728.162 276.17 725.217 273.525C664.898 218.898 582.255 187.755 500.772 191.605Q499.928 191.649 499.085 191.71Z"/>
	<path fill="#0D94FE" d="M380.851 349.817C387.312 351.076 400.066 357.929 405.559 361.821C406.799 362.7 407.99 363.544 408.064 365.209C408.154 367.229 406.322 368.585 404.99 369.827C403.608 369.959 402.491 369.732 401.17 369.335C395.14 367.524 381.28 362.276 378.149 356.558C377.83 353.581 379.213 352.094 380.851 349.817Z"/>
	<path fill="#0D94FE" d="M556.929 350.445C557.962 350.573 559.166 350.825 560.022 351.456C561.414 352.482 561.997 353.77 562.097 355.408C559.395 361.565 542.306 367.589 535.736 370.534C533.53 370.135 531.956 369.233 530.473 367.582C530.258 366.652 530.048 366.405 530.397 365.468C532.584 359.6 550.857 352.923 556.929 350.445Z"/>
	<path fill="#0D94FE" d="M528.907 313.309C529.873 313.616 531.196 314.144 531.969 314.808C533.084 315.765 533.493 316.76 533.533 318.212C533.701 324.336 519.177 341.477 514.677 346.17C513.366 345.853 511.918 345.483 510.968 344.436C510.216 343.606 509.865 342.718 509.882 341.592C509.989 334.634 523.689 318.595 528.907 313.309Z"/>
	<path fill="#0D94FE" d="M408.729 311.351C410.002 311.573 410.922 311.776 411.93 312.673C415.51 315.86 430.354 337.068 430 341.018C429.803 343.208 427.547 344.718 426.02 345.999C423.988 345.08 422.339 343.185 420.908 341.504C417.785 337.838 404.019 319.433 404.694 315.116C404.975 313.318 407.341 312.173 408.729 311.351Z"/>
	<path fill="#0D94FE" d="M365.949 727.566C372.614 727.305 395.774 726.033 400.517 728.585C401.943 729.352 402.291 730.258 402.676 731.756C402.404 733.12 402.254 733.95 401.099 734.878C397.93 737.423 391.388 736.465 387.563 736.15L387.573 763.375C387.64 766.061 387.962 769.123 387.35 771.747C386.768 774.247 385.315 776.628 383.127 778.005C382.276 777.944 382.255 778.126 381.758 777.64C377.333 773.314 379.091 743.449 379.08 736.197C375.258 736.481 369.45 736.998 365.944 735.214C365.047 734.757 364.288 734.017 364.05 733.028C363.524 730.843 364.8 729.287 365.949 727.566Z"/>
	<path fill="#0D94FE" d="M360.549 565.058Q376.906 565.027 393.262 565.179C388.131 573.621 382.114 581.697 376.387 589.75C372.325 595.869 368.352 602.232 363.574 607.819C362.464 606.124 361.486 604.489 360.987 602.506C358.929 594.336 360.672 574.634 360.549 565.058Z"/>
	<path fill="#0D94FE" d="M516.14 727.627C518.257 727.459 520.33 727.596 522.43 727.879C527.031 728.499 530.801 729.684 533.66 733.601C534.595 734.882 535.106 736.007 534.806 737.623C530.4 741.609 518.256 732.5 509.824 737.467C506.163 739.624 504.061 744.145 503.143 748.135C502.088 752.715 502.57 757.27 505.11 761.253C507.978 765.752 511.708 768.219 516.91 769.312C521.755 770.331 526.278 766.989 530.081 764.458C530.479 764.224 530.767 764.024 531.238 763.906C532.553 763.578 533.442 763.765 534.597 764.386C535.091 764.991 535.486 765.477 535.628 766.277C535.861 767.593 535.295 768.903 534.616 770.002C532.32 773.716 527.561 775.556 523.467 776.331C517.144 777.528 510.758 776.514 505.423 772.828C499.703 768.877 496 762.502 494.838 755.698Q494.732 755.11 494.655 754.517Q494.578 753.924 494.531 753.328Q494.484 752.732 494.467 752.134Q494.449 751.536 494.462 750.939Q494.474 750.341 494.516 749.744Q494.559 749.148 494.631 748.554Q494.703 747.961 494.804 747.372Q494.906 746.782 495.037 746.199Q495.167 745.615 495.327 745.039Q495.487 744.463 495.675 743.896Q495.863 743.328 496.08 742.771Q496.296 742.213 496.54 741.667Q496.784 741.122 497.055 740.588Q497.325 740.055 497.622 739.536Q497.92 739.018 498.242 738.514Q498.565 738.011 498.912 737.524C503.198 731.551 509.131 728.911 516.14 727.627Z"/>
	<path fill="#0D94FE" d="M544.386 727.472C544.561 727.466 544.737 727.458 544.912 727.454C546.567 727.414 548.131 727.354 549.293 728.771C552.377 732.533 550.664 743.951 550.518 748.898C555.114 742.902 563.841 732.708 570.292 729.14C572.157 728.108 574.014 727.396 576.121 728.055C576.533 728.673 576.831 728.875 576.808 729.665C576.632 735.729 563.012 747.519 558.434 751.738C562.526 755.71 566.269 760.061 570.088 764.294C572.603 766.939 576.236 770.219 576.487 774.026C575.938 775.22 575.738 775.764 574.45 776.34C567.209 779.581 559.314 758.81 552.7 757.265C551.952 757.091 552.101 757.209 551.397 757.667C550.172 763.06 551.374 768.814 550.167 774.211C549.764 776.012 549.157 777.192 547.593 778.186C546.627 778.192 546.054 778.078 545.24 777.572C543.945 776.767 543.587 776.135 543.241 774.653C541.771 768.367 541.867 738.664 542.755 731.652C542.96 730.038 543.509 728.825 544.386 727.472Z"/>
	<path fill="#0D94FE" d="M592.001 727.288C598.086 726.906 605.652 726.125 611.519 727.815C613.742 728.455 615.353 729.302 616.456 731.399C616.369 732.298 616.443 732.812 615.708 733.453C611.17 737.409 597.925 735.615 591.993 735.494L591.935 747.535C596.872 747.307 604.899 745.92 609.312 748.059C611.111 748.93 612.205 750.019 612.878 751.915C612.723 752.739 612.812 753.166 612.156 753.77C608.625 757.011 596.884 755.442 592.094 755.662C591.794 758.96 591.848 762.313 591.807 765.625C591.862 766.797 591.723 768.028 591.668 769.203C597.176 769.024 602.802 768.659 608.305 768.959C610.935 769.103 613.45 769.459 615.283 771.503C615.614 772.769 615.575 772.99 615.219 774.257C613.557 776.069 611.553 776.491 609.165 776.725C604.653 777.169 588.97 777.941 585.595 775.198C582.251 769.248 583.365 739.496 584.135 731.475C584.712 730.555 585.328 729.614 586.059 728.806C587.562 727.145 589.933 727.375 592.001 727.288Z"/>
	<path fill="#0D94FE" d="M472.88 727.159C473.654 727.375 474.211 727.626 474.922 727.986C478.571 732.824 491.888 767.878 492.557 774.584C492.004 775.779 491.813 776.157 490.485 776.659C489.35 777.088 488.139 776.967 487.116 776.317C484.127 774.417 482.937 768.634 481.877 765.481L470.875 765.496L462.096 765.537Q461.108 768.563 459.945 771.526C459.139 773.534 457.813 776.35 455.634 777.094C454.847 777.362 454.233 777.13 453.516 776.738C452.4 776.126 451.767 774.756 451.442 773.614C452.028 767.595 465.008 733.745 468.454 728.372C469.775 727.315 471.263 727.331 472.88 727.159ZM472.183 739.361C469.713 745.652 467.389 752.155 464.521 758.269L470.375 758.202L479.262 758.234C477.359 752.538 475.544 744.294 472.183 739.361Z"/>
	<path fill="#0D94FE" d="M648.743 665.084C652.056 664.947 659.043 664.023 661.528 666.236C660.664 671.997 650.998 684.873 647.557 690.123C640.485 700.463 646.2 715.948 641.308 720.878C640.135 722.059 638.129 722.553 636.492 722.622C634.862 722.691 633.524 722.107 632.372 720.978C628.051 716.738 629.905 702.949 630.111 697.315C624.909 687.878 616.925 679.273 612.564 669.52C611.933 668.109 611.397 666.72 612.018 665.223Q618.356 665.263 624.689 665.523C628.837 671.619 633.242 677.66 637.02 683.989C641.074 677.789 644.866 671.398 648.743 665.084Z"/>
	<path fill="#0D94FE" d="M417.699 727.728C421.474 727.765 425.381 727.789 429.116 728.344C433.799 729.038 438.493 730.951 441.26 734.979C443.472 738.198 444.038 742.296 443.336 746.09C442.29 751.736 438.827 755.6 434.179 758.675C437.604 763.869 442.072 768.491 446.207 773.123C444.741 774.594 442.966 776.888 440.688 776.765C438.22 776.631 436.115 773.498 434.618 771.78Q429.659 765.86 425.013 759.691L417.624 759.717C417.846 762.85 418.596 767.155 417.875 770.178C417.185 773.072 416.168 775.541 413.625 777.204C412.789 777.195 412.418 777.376 411.739 776.795C410.44 775.683 409.7 773.883 409.494 772.207C408.814 766.679 408.23 731.857 410.943 729.243C412.622 727.625 415.528 727.826 417.699 727.728ZM417.504 736.486C417.531 741.628 417.47 746.786 417.791 751.919C423.633 752.05 428.426 752.292 433.592 749.115C434.955 747.147 436.662 744.698 435.965 742.136C435.443 740.215 434.1 739.082 432.362 738.263C427.838 736.131 422.38 736.421 417.504 736.486Z"/>
	<path fill="#0D94FE" d="M627.5 727.311C633.955 726.794 641.678 726.063 647.882 728.227C651.998 729.662 655.394 732.541 657.178 736.55C658.93 740.485 659.12 745.225 657.554 749.249C655.674 754.078 652.222 756.358 647.694 758.339C650.396 761.975 657.503 768.935 657.63 773.596C657.67 775.046 657.392 775.249 656.478 776.258C655.154 776.717 654.349 776.797 652.954 776.667C651.064 775.636 649.927 773.918 648.612 772.26Q643.732 766.152 639.837 759.373L630.609 759.472C630.765 764.204 631.405 769.385 629.872 773.94C629.265 775.744 628.401 777.216 626.667 778.094L625.307 777.562C624.203 776.163 623.582 774.884 623.173 773.136C621.88 767.61 621.592 732.295 624.277 728.876C625.26 727.625 626.039 727.608 627.5 727.311ZM630.456 734.697L630.437 751.756C636.62 751.863 643.759 752.73 649.181 749.228C650.507 746.612 651.999 743.568 651.069 740.572C650.457 738.602 648.937 737.379 647.128 736.519C642.106 734.131 635.861 734.683 630.456 734.697Z"/>
	<path fill="#0D94FE" d="M360.528 520.171C374.311 519.654 389.201 519.08 402.874 520.79C402.938 521.156 403.005 521.521 403.054 521.89C403.707 526.823 404.67 551.146 402.271 554.337C391.189 556.921 372.336 555.512 360.614 555.198C361.312 543.595 360.93 531.781 360.528 520.171Z"/>
	<path fill="#0D94FE" d="M360.506 429.09C367.599 428.967 397.091 427.913 401.896 429.987C402.676 430.324 402.756 430.538 403.047 431.309C404.534 435.248 404.57 459.203 402.948 463.193C394.455 466.032 370.987 464.445 360.635 464.246C361.224 452.595 360.729 440.755 360.506 429.09Z"/>
	<path fill="#0D94FE" d="M465.505 665.066C471.96 664.996 496.264 663.316 500.665 666.125C501.962 667.922 502.215 669.507 502.202 671.711C502.196 672.85 502.235 674.219 501.279 675.005C497.84 677.834 481.816 676.538 476.707 676.47Q476.915 681.997 476.684 687.523C481.243 687.428 491.481 686.191 495.437 688.286Q495.718 688.433 495.983 688.608Q496.248 688.783 496.494 688.984Q496.74 689.185 496.964 689.41Q497.188 689.635 497.388 689.882Q497.588 690.128 497.762 690.394Q497.935 690.66 498.081 690.942Q498.227 691.224 498.344 691.519Q498.46 691.814 498.546 692.12C498.943 693.545 498.761 695.158 497.833 696.349C494.73 700.33 482.688 698.058 477.8 698.494L477.018 698.569L476.751 703.397L476.763 710.455Q489.795 710.234 502.827 710.476C502.945 713.207 503.607 718.335 502.194 720.659C501.775 721.348 500.786 721.338 500.049 721.455C495.49 722.178 467.725 723.46 464.741 721.247C463.26 715.074 463.352 675.957 464.288 668.707C464.464 667.339 464.888 666.29 465.505 665.066Z"/>
	<path fill="#0D94FE" d="M360.573 474.232C368.839 473.924 394.66 472.816 401.408 475.028C402.114 475.259 402.568 475.334 402.872 476.069C404.355 479.648 403.973 505.979 402.51 509.806C389.079 512.25 374.171 510.843 360.554 510.51Q360.852 492.371 360.573 474.232Z"/>
	<path fill="#0D94FE" d="M370.015 665.176C377.993 664.993 398.353 663.816 405.11 665.98C405.738 666.673 405.945 666.774 406.193 667.729C406.691 669.656 406.834 672.558 405.816 674.298C400.801 678.796 387.187 676.741 380.661 676.434L380.682 687.203C385.933 686.993 396.023 685.516 400.227 688.858C401.335 689.739 401.961 690.916 402.075 692.324C402.208 693.973 401.799 695.319 400.653 696.55C397.291 700.162 385.785 698.61 380.958 698.47L380.872 706.521L380.644 710.552C385.783 710.279 401.356 708.546 405.252 711.648C406.508 712.647 407.68 715.082 407.796 716.674C407.897 718.057 407.599 719.151 406.572 720.128C405.191 721.441 403.002 721.942 401.18 722.226C396.938 722.888 392.289 722.359 387.995 722.358C382.763 722.356 377.306 722.834 372.102 722.442C370.474 722.319 369.124 721.826 368.11 720.469C367.062 719.066 366.881 716.532 366.756 714.857C366.266 708.313 366.91 701.397 366.963 694.812C367.032 686.385 365.984 677.021 367.452 668.772C367.807 666.782 368.382 666.327 370.015 665.176Z"/>
	<path fill="#0D94FE" d="M581.3 664.646C581.617 664.621 581.933 664.584 582.251 664.572C591.552 664.198 599.074 668.586 605.806 674.526C603.228 677.712 600.561 680.654 597.64 683.529C595.66 681.801 593.471 680.196 591.121 679C586.902 676.853 582.306 675.656 577.702 677.329C573.548 678.84 570.435 682.347 568.734 686.349Q568.539 686.802 568.367 687.264Q568.195 687.726 568.047 688.196Q567.9 688.666 567.776 689.143Q567.653 689.621 567.555 690.104Q567.457 690.587 567.383 691.074Q567.31 691.562 567.262 692.052Q567.214 692.543 567.192 693.035Q567.169 693.528 567.172 694.021Q567.175 694.514 567.204 695.006Q567.232 695.498 567.286 695.988Q567.34 696.478 567.419 696.964Q567.498 697.451 567.602 697.933Q567.707 698.414 567.836 698.89Q567.964 699.366 568.118 699.835Q568.271 700.303 568.449 700.763Q568.626 701.223 568.827 701.673C570.582 705.524 573.571 708.705 577.625 710.105C583.47 712.123 590.515 709.929 595.86 707.324L595.917 701.776C593.021 701.926 589.181 702.427 586.385 701.692C585.427 701.44 585.008 700.969 584.598 700.112C583.573 697.974 583.839 694.049 584.637 691.898C585.093 690.67 585.658 690.625 586.775 690.069C591.646 690.007 600.096 688.489 604.33 690.799C606.104 691.766 607.034 693.432 607.541 695.328C608.48 698.84 608.434 710.917 606.533 713.843C603.67 718.249 594.717 720.854 589.793 721.852C581.706 723.492 573.154 722.689 566.236 717.852C560.089 713.554 556.03 706.348 554.739 699.015C553.343 691.086 554.85 682.868 559.665 676.32C564.975 669.098 572.673 665.841 581.3 664.646Z"/>
	<path fill="#0D94FE" d="M509.114 665.25C518.16 664.557 531.897 663.441 540.209 667.396Q540.924 667.736 541.601 668.147Q542.278 668.558 542.908 669.037Q543.539 669.516 544.117 670.057Q544.695 670.598 545.215 671.196Q545.734 671.794 546.189 672.442Q546.644 673.09 547.03 673.782Q547.416 674.473 547.729 675.201Q548.042 675.928 548.278 676.684C549.753 681.253 549.462 686.696 547.233 690.975C544.897 695.458 541.533 697.311 536.875 698.778C539.163 702.379 551.746 717.769 551.907 719.907C551.573 720.345 551.312 720.736 550.858 721.081C548.241 723.072 542.804 722.459 539.681 722.442C534.708 717.871 527.537 702.014 522.254 700.472C516.623 703.688 523.456 715.663 519.446 720.31C518.188 721.767 515.338 722.955 513.433 722.946C511.92 722.939 510.609 722.215 509.612 721.109C508.012 719.334 507.322 716.775 507.044 714.454C506.304 708.273 507.275 701.271 507.321 695.01C507.386 686.385 506.324 676.242 507.482 667.814C507.676 666.398 507.958 666.03 509.114 665.25ZM520.448 676.446L520.367 690.377C525.573 690.343 530.314 690.509 535.233 688.464C536.652 686.571 538.228 684.382 537.694 681.855C537.359 680.271 536.188 679.194 534.817 678.465C530.567 676.203 525.147 676.408 520.448 676.446Z"/>
	<path fill="#0D94FE" d="M417.13 663.976C418.423 664.048 419.738 664.179 420.986 664.554C429.93 667.242 441.742 691.253 446.073 699.819C446.001 693.519 444.245 669.78 448.095 665.641C449.062 664.602 449.929 664.227 451.328 664.212C453.277 664.19 456.885 664.83 458.113 666.551C460.261 669.564 459.91 714.254 458.685 718.209C457.954 720.568 456.732 721.285 454.577 722.313C453.284 722.395 451.675 722.622 450.412 722.29C444.523 720.742 429.783 695.04 425.515 688.452C425.657 697.09 427.244 709.782 425.489 717.974C425.167 719.478 424.598 720.615 423.227 721.414C421.382 722.489 417.975 723.181 415.933 722.386C414.455 721.81 413.5 720.543 412.925 719.116C412.308 717.586 412.029 715.871 411.951 714.231C411.547 705.766 412.222 697.167 412.303 688.69C412.358 683.048 411.795 677.279 411.974 671.684C412.019 670.278 412.232 668.848 412.8 667.549C413.693 665.506 415.155 664.786 417.13 663.976Z"/>
	<path fill="#0D94FE" d="M466.772 292.424C470.845 293.545 472.985 295.48 475.423 298.847C475.652 326.449 476.046 354.203 475.367 381.791Q478.287 383.325 481.047 385.131C487.434 389.351 490.397 394.797 491.915 402.161C519.037 401.344 546.388 401.986 573.533 402.074L573.51 416.099C545.78 416.162 517.974 416.574 490.251 416.022C489.253 417.567 488.26 419.159 487.101 420.589C481.801 427.133 475.178 429.946 466.98 430.785C465.255 430.679 463.495 430.594 461.796 430.263C453.707 428.685 448.35 422.906 444.107 416.287C416.347 415.19 388.59 415.576 360.82 416.057L360.594 402.058L441.734 401.911C442.446 399.603 443.254 397.261 444.39 395.124C447.849 388.615 453.549 383.982 460.554 381.812L460.469 324.452C460.47 317.437 459.457 303.798 461.13 297.595C461.879 294.821 464.467 293.705 466.772 292.424Z"/>
	<path fill="#0D94FE" d="M460.305 264.203C462.692 263.851 465.329 263.914 467.743 263.878Q469.302 263.865 470.861 263.89Q472.421 263.915 473.979 263.978Q475.537 264.041 477.093 264.143Q478.649 264.244 480.202 264.384Q481.755 264.524 483.304 264.702Q484.853 264.88 486.398 265.096Q487.942 265.312 489.481 265.566Q491.019 265.82 492.551 266.111Q494.083 266.403 495.607 266.732Q497.131 267.061 498.647 267.428Q500.163 267.794 501.669 268.198Q503.175 268.602 504.671 269.043Q506.167 269.483 507.651 269.961Q509.136 270.438 510.608 270.952Q512.08 271.465 513.54 272.015Q514.999 272.565 516.444 273.15Q517.89 273.736 519.32 274.356Q520.75 274.977 522.165 275.633Q523.58 276.289 524.978 276.979Q526.376 277.669 527.757 278.394Q529.138 279.118 530.501 279.877Q531.863 280.635 533.207 281.426Q534.55 282.218 535.874 283.042Q537.198 283.867 538.501 284.723Q539.804 285.58 541.085 286.468Q542.367 287.357 543.626 288.276Q544.885 289.196 546.122 290.146Q547.358 291.096 548.571 292.077Q549.783 293.057 550.971 294.067Q552.16 295.077 553.323 296.116Q554.485 297.155 555.622 298.222Q556.76 299.289 557.87 300.384C582.071 323.986 595.464 354.747 597.71 388.358C598.74 403.775 597.869 419.527 598.111 435.002C594.424 437.502 590.633 439.493 586.541 441.241C586.426 412.796 588.9 382.345 579.081 355.278Q578.574 353.859 578.032 352.454Q577.49 351.048 576.913 349.657Q576.336 348.266 575.724 346.889Q575.112 345.513 574.466 344.152Q573.82 342.791 573.14 341.447Q572.459 340.103 571.746 338.776Q571.032 337.45 570.286 336.141Q569.539 334.833 568.76 333.544Q567.98 332.255 567.169 330.985Q566.358 329.716 565.515 328.468Q564.672 327.219 563.798 325.992Q562.924 324.765 562.02 323.561Q561.115 322.356 560.181 321.174Q559.247 319.993 558.283 318.835Q557.319 317.677 556.327 316.544Q555.334 315.411 554.314 314.303Q553.293 313.195 552.245 312.113Q551.197 311.031 550.123 309.975Q549.048 308.92 547.947 307.892Q546.846 306.863 545.719 305.863Q544.593 304.863 543.442 303.891Q542.291 302.92 541.116 301.977Q539.941 301.035 538.742 300.122Q537.544 299.209 536.323 298.327Q535.102 297.444 533.859 296.593Q532.617 295.741 531.353 294.921Q530.09 294.101 528.806 293.313Q527.522 292.525 526.219 291.769Q524.916 291.014 523.594 290.291Q522.272 289.568 520.933 288.879Q519.594 288.189 518.237 287.534Q516.881 286.878 515.509 286.257Q514.22 285.669 512.917 285.113Q511.614 284.557 510.298 284.033Q508.982 283.51 507.653 283.019Q506.324 282.529 504.983 282.071Q503.642 281.614 502.29 281.19Q500.939 280.766 499.577 280.376Q498.215 279.986 496.844 279.63Q495.473 279.273 494.093 278.951Q492.714 278.629 491.327 278.342Q489.94 278.054 488.546 277.801Q487.152 277.548 485.752 277.33Q484.352 277.112 482.948 276.928Q481.543 276.745 480.134 276.596Q478.725 276.448 477.313 276.334Q475.901 276.221 474.487 276.143Q473.072 276.064 471.657 276.021Q470.241 275.978 468.824 275.97Q467.407 275.962 465.991 275.99Q464.575 276.017 463.159 276.08Q461.744 276.142 460.331 276.24Q458.918 276.338 457.507 276.47Q456.097 276.603 454.69 276.771Q453.284 276.939 451.882 277.142Q450.48 277.344 449.083 277.582Q447.686 277.819 446.296 278.092Q444.906 278.364 443.523 278.67Q442.14 278.977 440.765 279.318Q439.39 279.659 438.024 280.034Q436.658 280.409 435.302 280.818Q433.945 281.227 432.599 281.669Q431.254 282.112 429.919 282.587Q428.585 283.063 427.263 283.572Q425.861 284.106 424.473 284.673Q423.085 285.241 421.711 285.842Q420.337 286.443 418.977 287.077Q417.618 287.711 416.275 288.378Q414.932 289.045 413.605 289.745Q412.278 290.444 410.969 291.175Q409.659 291.907 408.368 292.669Q407.076 293.432 405.804 294.226Q404.532 295.02 403.279 295.845Q402.026 296.669 400.794 297.524Q399.561 298.379 398.35 299.263Q397.138 300.148 395.949 301.061Q394.759 301.975 393.592 302.917Q392.425 303.859 391.281 304.829Q390.137 305.799 389.017 306.796Q387.898 307.794 386.802 308.818Q385.707 309.843 384.636 310.893Q383.566 311.944 382.521 313.02Q381.477 314.097 380.459 315.198Q379.441 316.299 378.45 317.425Q377.459 318.551 376.495 319.7Q375.532 320.85 374.596 322.022Q373.661 323.195 372.754 324.389Q371.848 325.584 370.97 326.801Q370.093 328.017 369.245 329.254Q368.398 330.492 367.58 331.749Q366.763 333.007 365.976 334.284Q365.19 335.561 364.434 336.856Q363.679 338.152 362.955 339.466Q362.231 340.779 361.54 342.11Q360.848 343.441 360.189 344.788Q359.529 346.135 358.903 347.498Q356.955 351.755 355.377 356.161Q353.799 360.568 352.602 365.094Q351.404 369.619 350.596 374.23Q349.789 378.84 349.376 383.503C348.142 396.316 348.531 409.262 348.542 422.118L348.557 477.439L348.451 551.771C348.437 565.653 347.959 579.733 348.682 593.588C348.911 597.984 349.406 602.584 351.082 606.693C353.96 613.748 360.163 617.914 366.883 620.785C373.925 608.975 383.585 598.103 391.613 586.897C408.699 563.05 425.322 538.899 442.984 515.467C453.736 525.096 464.986 534.337 476.217 543.403L510.01 500.598Q525.721 481.23 541.997 462.334C550.639 452.163 559.145 441.799 568.359 432.139L570.962 436.281C575.783 444.25 580.176 452.501 584.693 460.645Q615.58 432.003 645.974 402.838C657.302 391.982 668.394 380.897 680.008 370.343Q677.644 367.579 675.223 364.865C673.665 365.554 671.621 366.457 669.872 366.158C668.339 365.896 666.623 364.361 666.024 362.947C665.526 361.774 665.459 360.663 665.961 359.472C666.95 357.128 669.401 355.717 671.518 354.531C679.152 350.254 687.896 347.536 695.994 344.215C706.206 340.028 716.156 335.358 726.564 331.648Q727.419 331.969 728.265 332.31C731.6 333.658 735.353 335.764 736.663 339.34C737.9 342.72 735.638 347.717 734.299 350.905C731.081 358.562 727.056 365.92 723.512 373.434C719.412 382.125 715.784 392.99 709.967 400.619C708.541 402.49 706.663 403.226 704.542 404.097C705.184 421.977 704.983 439.85 704.975 457.738L704.943 533.515L705.011 573.329C705.068 583.137 705.621 593.188 704.324 602.925C703.433 609.611 701.098 615.657 696.785 620.886C691.531 627.256 682.204 631.801 674.018 632.559C665.927 633.309 657.746 633.067 649.627 633.059L613.991 633.051L497.936 633.024L413.239 633.043C398.739 633.085 383.813 634.382 369.394 632.752C362.185 631.937 356.091 629.26 350.535 624.602C341.958 617.411 338.203 608.963 337.258 597.942C336.306 586.832 337.016 575.33 337.039 564.175L337.148 502.733L337.201 428.239C337.15 408.625 335.736 388.503 339.667 369.151Q340.081 367.137 340.556 365.136Q341.032 363.136 341.569 361.151Q342.107 359.166 342.705 357.199Q343.303 355.232 343.962 353.284Q344.621 351.336 345.34 349.409Q346.058 347.483 346.836 345.579Q347.614 343.676 348.45 341.797Q349.287 339.919 350.181 338.067Q351.075 336.215 352.025 334.392Q352.976 332.569 353.983 330.776Q354.989 328.983 356.051 327.222Q357.113 325.461 358.228 323.733Q359.343 322.006 360.512 320.314Q361.68 318.622 362.9 316.966Q364.12 315.311 365.391 313.694Q366.661 312.078 367.981 310.501C391.359 282.921 424.515 267.117 460.305 264.203ZM694.935 388.008C679.79 398.733 667.117 413.643 653.693 426.408L580.311 495.683C575.294 487.657 570.258 479.608 565.728 471.293C547.6 490.409 530.674 510.603 512.998 530.128C501.669 542.642 488.912 554.536 478.533 567.817Q466.827 560.256 455.599 552.003C434.391 570.112 413.594 588.567 392.782 607.117C387.334 612.123 381.768 618.014 375.571 622.029C443.788 622.795 512.095 622.334 580.319 622.199Q608.966 622.206 637.611 622.548C648.399 622.645 659.487 623.395 670.226 622.227C676.481 621.547 682.473 619.625 687.057 615.093C691.508 610.692 693.096 605.01 693.917 598.995C694.959 591.359 694.476 583.41 694.444 575.71L694.406 543.044L694.312 446.502C694.269 430.341 693.644 414.019 694.101 397.876C695.773 396.218 697.413 394.651 699.297 393.225C697.885 391.453 696.515 389.634 694.935 388.008Z"/>
	<path fill="#0034F1" d="M625.913 547.154C628.377 546.874 630.643 547.055 632.611 548.741C636.033 551.671 636.498 557.059 636.974 561.246C642.352 560.972 647.783 561.311 652.56 564.073C656.913 566.59 659.918 570.767 661.191 575.607C662.933 582.23 661.46 589.429 657.828 595.167C652.94 602.891 645.724 607 636.995 608.995C628.863 610.195 620.486 608.549 613.693 603.836Q613.034 603.373 612.399 602.878Q611.764 602.384 611.154 601.859Q610.544 601.334 609.96 600.78Q609.376 600.226 608.82 599.644Q608.264 599.062 607.737 598.453Q607.21 597.844 606.713 597.211Q606.216 596.577 605.751 595.92Q605.286 595.263 604.854 594.584Q604.421 593.905 604.023 593.206Q603.624 592.507 603.26 591.789Q602.896 591.071 602.567 590.336Q602.239 589.601 601.946 588.851Q601.654 588.101 601.399 587.337Q601.143 586.574 600.926 585.799Q600.708 585.024 600.529 584.239Q600.349 583.455 600.208 582.662Q600.075 581.892 599.981 581.116Q599.886 580.34 599.829 579.561Q599.772 578.782 599.753 578Q599.734 577.219 599.754 576.438Q599.773 575.657 599.83 574.877Q599.888 574.098 599.983 573.322Q600.078 572.547 600.212 571.777Q600.345 571.006 600.515 570.244Q600.686 569.481 600.893 568.728Q601.101 567.974 601.345 567.232Q601.589 566.49 601.869 565.76Q602.148 565.03 602.464 564.315Q602.779 563.6 603.128 562.901Q603.478 562.202 603.862 561.521Q604.245 560.84 604.661 560.179Q605.077 559.517 605.525 558.877C610.411 551.939 617.814 548.554 625.913 547.154ZM623.913 551.571C616.305 554.18 610.577 557.698 606.971 565.25C603.597 572.315 603.745 579.904 606.51 587.112C609.116 593.906 614.15 599.637 620.891 602.552C627.447 605.385 635.317 605.631 641.897 602.745C648.215 599.975 653.449 594.691 655.914 588.223C657.529 583.984 657.938 579.218 656.082 574.987C654.321 570.971 651.075 568.405 647.251 566.504C640.223 565.331 633.001 566.482 625.968 567.177C629.788 575.611 634.848 583.156 640.113 590.734L640.724 590.938C642.47 591.538 643.889 591.917 644.802 593.646C645.526 595.017 645.847 596.885 645.484 598.405C645.268 599.308 644.812 599.76 644.183 600.388C642.859 600.741 642.208 600.878 640.939 600.236C635.808 597.644 621.311 572.257 619.931 566.529C619.638 565.316 619.715 564.455 620.069 563.275C621.9 561.431 625.334 561.687 627.775 561.676Q630.238 561.675 632.7 561.728C632.057 558.573 631.785 553.76 628.754 551.927C627.358 551.082 625.461 551.435 623.913 551.571Z"/>
	<path fill="#0D94FE" d="M548.583 552.154C555.854 551.6 562.511 552.408 568.989 555.956C576.718 560.188 583.099 567.715 585.446 576.27C587.593 584.096 586.61 592.257 582.473 599.28C577.497 607.729 569.868 611.958 560.639 614.333C552.479 615.129 544.139 613.494 537.233 608.977C529.979 604.234 524.559 596.85 522.89 588.278C521.295 580.08 522.793 570.986 527.606 564.086C532.707 556.774 540.099 553.508 548.583 552.154ZM563.11 562.338C561.397 563.567 559.229 564.765 558.689 566.966C558.188 569.009 559.155 571.229 559.818 573.126C556.481 576.851 553.21 580.79 549.399 584.041C546.539 581.155 544.195 578.523 539.838 578.387C538.673 578.35 537.871 578.652 536.813 579.1C535.812 580.219 535.611 580.462 535.285 581.913C535.698 583.732 536.459 585.563 537.834 586.849Q542.985 587.761 548.171 588.45L548.472 588.077C551.4 584.504 555.513 579.131 559.339 576.652C562.074 574.88 565.636 573.788 568.037 571.592C568.951 570.756 569.665 569.697 569.686 568.412C569.71 566.902 568.799 565.326 567.698 564.345C566.362 563.154 564.838 562.629 563.11 562.338Z"/>
</svg>
