<?xml version="1.0"?>
<svg viewBox="0 0 340.000000 340.000000" xmlns="http://www.w3.org/2000/svg" xmlns:svg="http://www.w3.org/2000/svg" preserveAspectRatio="xMidYMid meet" version="1.0">
 <g class="layer">
  <title>Layer 1</title>
  <g fill="#000000" id="svg_1" transform="matrix(0.1 0 0 -0.1 0 0)">
   <path d="m1465,-220c-436,-79 -769,-284 -1000,-614c-131,-188 -195,-326 -245,-523c-121,-486 -11,-943 324,-1341c171,-205 407,-360 685,-452c171,-57 286,-74 481,-74c142,0 183,4 294,27c312,67 565,202 776,415c226,229 365,489 426,797c27,135 25,396 -5,535c-134,640 -606,1114 -1221,1225c-148,27 -381,29 -515,5zm485,-141c288,-49 527,-176 732,-388c355,-367 489,-869 358,-1337c-72,-259 -265,-548 -470,-704c-195,-148 -376,-232 -600,-281c-148,-32 -380,-31 -529,1c-282,60 -519,181 -706,361c-443,425 -553,1055 -281,1601c133,264 360,499 606,623c251,127 594,175 890,124z" id="svg_2"/>
   <path d="m1515,-461c-147,-19 -339,-85 -468,-161c-132,-77 -276,-208 -374,-338c-69,-92 -150,-249 -187,-360c-32,-99 -66,-261 -66,-319l0,-26l343,-3l343,-2l26,77c43,127 66,173 90,182c56,20 68,1 138,-218c23,-73 45,-130 48,-126c3,3 20,63 38,133c18,70 43,161 54,202c12,41 27,98 35,125c7,28 27,102 45,165c18,63 41,152 51,198c9,46 23,90 29,98c16,18 64,18 79,1c7,-10 12,-193 16,-598c6,-591 9,-665 26,-638c5,8 54,151 109,318c55,167 106,311 112,319c19,22 51,30 75,19c25,-11 31,-25 97,-232c48,-150 43,-146 76,-57c7,17 18,32 24,32c553,3 706,6 706,17c0,34 -42,248 -61,308c-77,249 -247,486 -474,662c-231,178 -593,264 -930,222z" id="svg_3"/>
   <path d="m1596,-1502c-37,-120 -111,-376 -129,-443c-12,-47 -43,-85 -69,-85c-27,0 -68,45 -68,74c0,24 -72,264 -86,287c-4,7 -14,-8 -25,-36c-10,-27 -24,-52 -31,-57c-7,-4 -183,-8 -390,-8l-378,0l0,-39c0,-21 7,-77 15,-124c53,-305 241,-609 489,-792c361,-265 813,-331 1226,-178c362,134 664,453 775,818c23,76 55,245 55,293l0,22l-322,-2l-323,-3l-29,-90c-16,-49 -33,-102 -38,-116c-13,-38 -54,-54 -84,-34c-13,8 -26,28 -29,43c-9,39 -85,262 -100,291c-11,22 -22,-6 -119,-300c-105,-320 -147,-468 -161,-562c-5,-33 -15,-53 -33,-67c-31,-25 -34,-25 -63,-1c-16,12 -24,30 -24,52c-1,19 -2,289 -3,602c-1,356 -6,567 -12,567c-5,0 -25,-51 -44,-112z" id="svg_4"/>
  </g>
 </g>
</svg>